<svg aria-hidden="true" style="position: absolute; width: 0; height: 0; overflow: hidden;" version="1.1"
  xmlns="http://www.w3.org/2000/svg" xmlns:xlink="http://www.w3.org/1999/xlink">
  <defs>
    <symbol id="arrow-icon" viewBox="0 0 32 32">
      <path stroke="#242424" stroke-linejoin="round" stroke-linecap="round" stroke-miterlimit="4" stroke-width="2.7733"
        d="M16 29.867l13.867-13.867M29.867 16l-13.867-13.867M29.867 16h-27.733"></path>
    </symbol>
    <symbol id="running-man-icon" viewBox="0 0 32 32">
      <path fill="#242424" d="M32 16c0 8.837-7.163 16-16 16s-16-7.163-16-16c0-8.837 7.163-16 16-16s16 7.163 16 16z">
      </path>
      <path fill="#f4f4f4"
        d="M25.098 11.634c-0.279-0.334-0.777-0.378-1.111-0.099l-2.188 1.838-1.006-2.493c-0.036-0.094-0.090-0.172-0.153-0.241-0.206-0.457-0.563-0.85-1.055-1.078-0.214-0.097-0.434-0.149-0.655-0.174-0.049-0.025-0.093-0.059-0.148-0.076l-3.85-1.073c-0.216-0.059-0.433-0.021-0.611 0.083-0.211 0.072-0.393 0.225-0.479 0.448l-1.45 3.728c-0.157 0.405 0.044 0.863 0.451 1.022 0.404 0.157 0.863-0.045 1.021-0.452l1.225-3.148 1.754 0.488c-0.043 0.069-0.089 0.134-0.124 0.208l-2.248 4.873c-0.032 0.072-0.050 0.144-0.073 0.218l-2.732 4.58-4.572 1.529c-0.518 0.387-0.627 1.116-0.245 1.633 0.385 0.519 1.116 0.628 1.632 0.246l4.679-1.612c0.143-0.104 0.247-0.24 0.326-0.387 0.059-0.062 0.126-0.112 0.171-0.189l1.629-2.731 2.891 2.464-3.094 3.487c-0.426 0.481-0.383 1.221 0.099 1.646 0.482 0.429 1.22 0.383 1.648-0.099l3.861-4.349c0.12-0.134 0.192-0.289 0.24-0.451 0.029-0.088 0.029-0.179 0.036-0.27 0-0.046 0.017-0.088 0.014-0.131-0.010-0.319-0.14-0.628-0.401-0.849l-2.661-2.269c0.192-0.183 0.355-0.4 0.473-0.655l1.724-3.733 0.552 1.471c0.023 0.131 0.067 0.259 0.159 0.366 0.083 0.099 0.189 0.165 0.303 0.211 0.012 0.006 0.025 0.007 0.039 0.010 0.072 0.025 0.144 0.050 0.219 0.053 0.089 0.008 0.179-0.003 0.27-0.029 0.002-0.001 0.003-0.001 0.003-0.001 0.024-0.006 0.049-0.001 0.073-0.012 0.128-0.048 0.226-0.131 0.311-0.226l3.14-2.665c0.334-0.281 0.193-0.777-0.088-1.111z">
      </path>
      <path fill="#f4f4f4"
        d="M21.126 9.735c1.215 0 2.201-0.985 2.201-2.201s-0.985-2.201-2.201-2.201c-1.215 0-2.201 0.985-2.201 2.201s0.985 2.201 2.201 2.201z">
      </path>
    </symbol>
    <symbol id="star-filled-icon" viewBox="0 0 34 32">
      <path fill="#eea10c"
        d="M14.89 2.282c0.737-2.268 3.945-2.268 4.682 0l2.080 6.402c0.33 1.014 1.275 1.701 2.341 1.701h6.731c2.384 0 3.376 3.051 1.447 4.453l-5.446 3.957c-0.863 0.627-1.224 1.738-0.894 2.752l2.080 6.402c0.737 2.268-1.859 4.154-3.788 2.752l-5.446-3.957c-0.863-0.627-2.031-0.627-2.894 0l-5.446 3.957c-1.929 1.402-4.525-0.484-3.788-2.752l2.080-6.402c0.33-1.014-0.031-2.125-0.894-2.752l-5.446-3.957c-1.929-1.402-0.938-4.453 1.447-4.453h6.731c1.066 0 2.012-0.687 2.341-1.701l2.080-6.402z">
      </path>
    </symbol>
    <symbol id="trash-icon" viewBox="0 0 28 32">
      <path stroke-linejoin="round" stroke-linecap="round" stroke-miterlimit="4" stroke-width="2.6" stroke="#242424"
        d="M19.333 8v-1.067c0-1.493 0-2.24-0.291-2.811-0.256-0.502-0.664-0.91-1.165-1.165-0.57-0.291-1.317-0.291-2.811-0.291h-2.133c-1.493 0-2.24 0-2.811 0.291-0.502 0.256-0.91 0.664-1.165 1.165-0.291 0.57-0.291 1.317-0.291 2.811v1.067M11.333 15.333v6.667M16.667 15.333v6.667M2 8h24M23.333 8v14.933c0 2.24 0 3.36-0.436 4.216-0.384 0.753-0.995 1.365-1.748 1.748-0.856 0.436-1.976 0.436-4.216 0.436h-5.867c-2.24 0-3.36 0-4.216-0.436-0.753-0.383-1.365-0.995-1.748-1.748-0.436-0.856-0.436-1.976-0.436-4.216v-14.933">
      </path>
    </symbol>
  </defs>
</svg>