<svg aria-hidden="true" style="position: absolute; width: 0; height: 0; overflow: hidden;"
  version="1.1"
  xmlns="http://www.w3.org/2000/svg" xmlns:xlink="http://www.w3.org/1999/xlink">
  <defs>
    <symbol id="sun-icon" viewBox="0 0 32 32">
        <path d="M31.5586 25.9717L32.9102 26.8076L33.8662 28.0732L34.3008 29.6016L34.1543 31.1807L33.4463 32.6025L32.2734 33.6719L30.7939 34.2461H29.2061L27.7256 33.6719L26.5527 32.6025L25.8447 31.1807L25.6982 29.6016L26.1328 28.0732L27.0889 26.8076L28.4404 25.9717L30 25.6797L31.5586 25.9717Z" stroke="#242424" stroke-width="4"/>
    </symbol>
    <symbol id="arrow-icon" viewBox="0 0 32 32">
      <path stroke="#242424" stroke-linejoin="round" stroke-linecap="round" stroke-miterlimit="4" stroke-width="2.7733"
        d="M16 29.867l13.867-13.867M29.867 16l-13.867-13.867M29.867 16h-27.733"/>
    </symbol>
    <symbol id="running-man-quote-icon" viewBox="0 0 29 32">
      <path fill="#f4f4f4" style="fill: var(--color1, #f4f4f4)"
        d="M28.367 9.451c-0.429-0.501-1.193-0.567-1.706-0.149l-3.359 2.757-1.545-3.739c-0.055-0.14-0.138-0.258-0.234-0.362-0.316-0.686-0.864-1.275-1.619-1.617-0.328-0.146-0.667-0.224-1.005-0.262-0.075-0.038-0.142-0.088-0.227-0.114l-5.911-1.61c-0.332-0.088-0.665-0.031-0.938 0.125-0.325 0.107-0.603 0.338-0.736 0.672l-2.226 5.592c-0.241 0.608 0.067 1.294 0.692 1.534 0.621 0.236 1.325-0.068 1.568-0.678l1.88-4.722 2.692 0.731c-0.066 0.104-0.137 0.201-0.19 0.312l-3.451 7.309c-0.050 0.107-0.076 0.217-0.112 0.328l-4.194 6.871-7.019 2.294c-0.794 0.58-0.963 1.674-0.376 2.45 0.591 0.778 1.713 0.943 2.506 0.369l7.182-2.417c0.22-0.156 0.38-0.36 0.5-0.581 0.090-0.093 0.193-0.168 0.262-0.284l2.501-4.096 4.439 3.696-4.749 5.23c-0.654 0.721-0.589 1.832 0.152 2.469 0.74 0.643 1.873 0.575 2.531-0.149l5.927-6.524c0.184-0.201 0.294-0.433 0.369-0.676 0.044-0.132 0.044-0.268 0.055-0.405 0-0.069 0.027-0.132 0.021-0.196-0.016-0.478-0.215-0.943-0.615-1.274l-4.084-3.403c0.294-0.274 0.544-0.6 0.725-0.983l2.646-5.599 0.848 2.206c0.036 0.196 0.103 0.388 0.245 0.549 0.128 0.149 0.291 0.248 0.465 0.317 0.018 0.009 0.039 0.010 0.060 0.016 0.11 0.038 0.222 0.075 0.337 0.080 0.136 0.012 0.275-0.005 0.415-0.043 0.004-0.002 0.005-0.002 0.005-0.002 0.037-0.009 0.075-0.002 0.112-0.017 0.197-0.073 0.348-0.196 0.477-0.34l4.82-3.998c0.512-0.421 0.296-1.166-0.135-1.667z"></path>
      <path fill="#f4f4f4" style="fill: var(--color1, #f4f4f4)"
        d="M22.271 6.602c1.866 0 3.378-1.478 3.378-3.301s-1.512-3.301-3.378-3.301c-1.866 0-3.378 1.478-3.378 3.301s1.513 3.301 3.378 3.301z"></path>
    </symbol>
    <symbol id="running-man-icon" viewBox="0 0 32 32">Add commentMore actions <path fill="#242424"
        d="M32 16c0 8.837-7.163 16-16 16s-16-7.163-16-16c0-8.837 7.163-16 16-16s16 7.163 16 16z">
      </path>
      <path fill="#f4f4f4"
        d="M25.098 11.634c-0.279-0.334-0.777-0.378-1.111-0.099l-2.188 1.838-1.006-2.493c-0.036-0.094-0.090-0.172-0.153-0.241-0.206-0.457-0.563-0.85-1.055-1.078-0.214-0.097-0.434-0.149-0.655-0.174-0.049-0.025-0.093-0.059-0.148-0.076l-3.85-1.073c-0.216-0.059-0.433-0.021-0.611 0.083-0.211 0.072-0.393 0.225-0.479 0.448l-1.45 3.728c-0.157 0.405 0.044 0.863 0.451 1.022 0.404 0.157 0.863-0.045 1.021-0.452l1.225-3.148 1.754 0.488c-0.043 0.069-0.089 0.134-0.124 0.208l-2.248 4.873c-0.032 0.072-0.050 0.144-0.073 0.218l-2.732 4.58-4.572 1.529c-0.518 0.387-0.627 1.116-0.245 1.633 0.385 0.519 1.116 0.628 1.632 0.246l4.679-1.612c0.143-0.104 0.247-0.24 0.326-0.387 0.059-0.062 0.126-0.112 0.171-0.189l1.629-2.731 2.891 2.464-3.094 3.487c-0.426 0.481-0.383 1.221 0.099 1.646 0.482 0.429 1.22 0.383 1.648-0.099l3.861-4.349c0.12-0.134 0.192-0.289 0.24-0.451 0.029-0.088 0.029-0.179 0.036-0.27 0-0.046 0.017-0.088 0.014-0.131-0.010-0.319-0.14-0.628-0.401-0.849l-2.661-2.269c0.192-0.183 0.355-0.4 0.473-0.655l1.724-3.733 0.552 1.471c0.023 0.131 0.067 0.259 0.159 0.366 0.083 0.099 0.189 0.165 0.303 0.211 0.012 0.006 0.025 0.007 0.039 0.010 0.072 0.025 0.144 0.050 0.219 0.053 0.089 0.008 0.179-0.003 0.27-0.029 0.002-0.001 0.003-0.001 0.003-0.001 0.024-0.006 0.049-0.001 0.073-0.012 0.128-0.048 0.226-0.131 0.311-0.226l3.14-2.665c0.334-0.281 0.193-0.777-0.088-1.111z">
      </path>
      <path fill="#f4f4f4"
        d="M21.126 9.735c1.215 0 2.201-0.985 2.201-2.201s-0.985-2.201-2.201-2.201c-1.215 0-2.201 0.985-2.201 2.201s0.985 2.201 2.201 2.201z">
      </path>
    </symbol>
    <symbol id="star-filled-icon" viewBox="0 0 34 32">
      <path fill="#eea10c"
        d="M14.89 2.282c0.737-2.268 3.945-2.268 4.682 0l2.080 6.402c0.33 1.014 1.275 1.701 2.341 1.701h6.731c2.384 0 3.376 3.051 1.447 4.453l-5.446 3.957c-0.863 0.627-1.224 1.738-0.894 2.752l2.080 6.402c0.737 2.268-1.859 4.154-3.788 2.752l-5.446-3.957c-0.863-0.627-2.031-0.627-2.894 0l-5.446 3.957c-1.929 1.402-4.525-0.484-3.788-2.752l2.080-6.402c0.33-1.014-0.031-2.125-0.894-2.752l-5.446-3.957c-1.929-1.402-0.938-4.453 1.447-4.453h6.731c1.066 0 2.012-0.687 2.341-1.701l2.080-6.402z">
      </path>
    </symbol>
    <symbol id="star-icon" viewBox="0 0 34 32">
      <path 
        d="M14.89 2.282c0.737-2.268 3.945-2.268 4.682 0l2.080 6.402c0.33 1.014 1.275 1.701 2.341 1.701h6.731c2.384 0 3.376 3.051 1.447 4.453l-5.446 3.957c-0.863 0.627-1.224 1.738-0.894 2.752l2.080 6.402c0.737 2.268-1.859 4.154-3.788 2.752l-5.446-3.957c-0.863-0.627-2.031-0.627-2.894 0l-5.446 3.957c-1.929 1.402-4.525-0.484-3.788-2.752l2.080-6.402c0.33-1.014-0.031-2.125-0.894-2.752l-5.446-3.957c-1.929-1.402-0.938-4.453 1.447-4.453h6.731c1.066 0 2.012-0.687 2.341-1.701l2.080-6.402z">
      </path>
    </symbol>
    <symbol id="trash-icon" viewBox="0 0 28 32">
      <path stroke-linejoin="round" stroke-linecap="round" stroke-miterlimit="4" stroke-width="2.6"
        d="M19.333 8v-1.067c0-1.493 0-2.24-0.291-2.811-0.256-0.502-0.664-0.91-1.165-1.165-0.57-0.291-1.317-0.291-2.811-0.291h-2.133c-1.493 0-2.24 0-2.811 0.291-0.502 0.256-0.91 0.664-1.165 1.165-0.291 0.57-0.291 1.317-0.291 2.811v1.067M11.333 15.333v6.667M16.667 15.333v6.667M2 8h24M23.333 8v14.933c0 2.24 0 3.36-0.436 4.216-0.384 0.753-0.995 1.365-1.748 1.748-0.856 0.436-1.976 0.436-4.216 0.436h-5.867c-2.24 0-3.36 0-4.216-0.436-0.753-0.383-1.365-0.995-1.748-1.748-0.436-0.856-0.436-1.976-0.436-4.216v-14.933">
      </path>
    </symbol>
    <symbol id="close-icon" viewBox="0 0 32 32">
      <path stroke-linecap="round" stroke-linejoin="round" stroke-width="2.667"
        d="M22.667 9.333 9.334 22.666M9.333 9.333l13.333 13.333" />
    </symbol>
    <symbol id="round-right-arrow-icon" viewBox="0 0 32 32">
      <path d="M16 .5C7.44.5.5 7.44.5 16S7.44 31.5 16 31.5c8.56 0 15.5-6.94 15.5-15.5S24.56.5 16 .5z" />
      <path
        d="M17.167 16.592a.84.84 0 0 0 .246-.591.835.835 0 0 0-.246-.591l-3.825-3.817a.84.84 0 0 1-.182-.912.83.83 0 0 1 .77-.513c.221 0 .431.087.588.242l3.825 3.825a2.5 2.5 0 0 1 0 3.534l-3.825 3.825a.834.834 0 0 1-1.175-1.182l3.825-3.817z" />
    </symbol>
    <symbol id="round-left-arrow-icon" viewBox="0 0 32 32">
      <path d="M16 .5C24.56.5 31.5 7.44 31.5 16S24.56 31.5 16 31.5C7.44 31.5.5 24.56.5 16S7.44.5 16 .5z" />
      <path
        d="M14.833 16.592a.84.84 0 0 1-.246-.591.835.835 0 0 1 .246-.591l3.825-3.817a.84.84 0 0 0 .182-.912.83.83 0 0 0-.769-.513.833.833 0 0 0-.587.242l-3.825 3.825a2.5 2.5 0 0 0 0 3.534l3.825 3.825a.834.834 0 0 0 1.175-1.182l-3.825-3.817z" />
    </symbol>
    <symbol id="round-doubled-right-arrow-icon" viewBox="0 0 32 32">
      <path d="M16 .5C7.44.5.5 7.44.5 16S7.44 31.5 16 31.5c8.56 0 15.5-6.94 15.5-15.5S24.56.5 16 .5z" />
      <path
        d="M21.167 16.592a.84.84 0 0 0 .246-.591.835.835 0 0 0-.246-.591l-3.825-3.817a.84.84 0 0 1-.182-.912.83.83 0 0 1 .769-.513c.22 0 .431.087.587.242l3.825 3.825a2.5 2.5 0 0 1 0 3.534l-3.825 3.825a.834.834 0 0 1-1.175-1.182l3.825-3.817zM14.167 16.592a.84.84 0 0 0 .246-.591.835.835 0 0 0-.246-.591l-3.825-3.817a.84.84 0 0 1-.182-.912.83.83 0 0 1 .77-.513c.221 0 .431.087.588.242l3.825 3.825a2.5 2.5 0 0 1 0 3.534l-3.825 3.825a.834.834 0 0 1-1.175-1.182l3.825-3.817z" />
    </symbol>
    <symbol id="round-doubled-left-arrow-icon" viewBox="0 0 32 32">
      <path d="M16 .5C24.56.5 31.5 7.44 31.5 16S24.56 31.5 16 31.5C7.44 31.5.5 24.56.5 16S7.44.5 16 .5z" />
      <path
        d="M10.833 16.592a.84.84 0 0 1-.246-.591.835.835 0 0 1 .246-.591l3.825-3.817a.84.84 0 0 0 .182-.912.83.83 0 0 0-.77-.513.835.835 0 0 0-.588.242l-3.825 3.825a2.5 2.5 0 0 0 0 3.534l3.825 3.825a.834.834 0 0 0 1.175-1.182l-3.825-3.817zM17.833 16.592a.84.84 0 0 1-.246-.591.835.835 0 0 1 .246-.591l3.825-3.817a.84.84 0 0 0 .182-.912.83.83 0 0 0-.769-.513.833.833 0 0 0-.587.242l-3.825 3.825a2.5 2.5 0 0 0 0 3.534l3.825 3.825a.834.834 0 0 0 1.175-1.182l-3.825-3.817z" />
    </symbol>
    <symbol id="menu-icon" viewBox="0 0 32 32">
      <path stroke-linecap="round" stroke-linejoin="round" stroke-width="2"
        d="M28 13.333H4M28 8H4M28 18.667H4M28 24H4" />
    </symbol>
    <symbol id="dumbell-icon" viewBox="0 0 32 32">
      <path
        d="M7.36 9.143H5.44c-.532 0-.96.459-.96 1.029v4.457h-.96c-.176 0-.32.154-.32.343v2.057c0 .188.144.343.32.343h.96v4.457c0 .57.428 1.028.96 1.028h1.92c.532 0 .96-.459.96-1.028V10.172c0-.57-.428-1.029-.96-1.029zm21.12 5.486h-.96v-4.457c0-.57-.428-1.029-.96-1.029h-1.92c-.532 0-.96.459-.96 1.029v11.657c0 .57.428 1.028.96 1.028h1.92c.532 0 .96-.459.96-1.028v-4.457h.96c.176 0 .32-.154.32-.343v-2.057c0-.189-.144-.343-.32-.343zM21.44 6.4h-1.92c-.532 0-.96.459-.96 1.029v7.2h-5.12v-7.2c0-.57-.428-1.029-.96-1.029h-1.92c-.532 0-.96.459-.96 1.029v17.143c0 .57.428 1.029.96 1.029h1.92c.532 0 .96-.459.96-1.029v-7.2h5.12v7.2c0 .57.428 1.029.96 1.029h1.92c.532 0 .96-.459.96-1.029V7.429c0-.57-.428-1.029-.96-1.029z" />
    </symbol>
    <symbol id="facebook-icon" viewBox="0 0 32 32">
      <path
        d="M19.52 4.64h.96v3.6h-1.2c-.48 0-.96 0-1.2.24s-.24.48-.24 1.04v1.28h2.64v3.04h-2.64v13.2h-4.08V13.76H11.6v-3.04h2.16V9.68c0-1.76.24-3.04.72-3.6.72-1.04 2.16-1.52 4.32-1.52.24.08.48.08.72.08z" />
    </symbol>
    <symbol id="heart-icon" viewBox="0 0 32 32">
      <path stroke-linecap="round" stroke-linejoin="round" stroke-width="2.4"
        d="M27.787 6.147a7.345 7.345 0 0 0-5.187-2.15 7.33 7.33 0 0 0-5.187 2.15L16 7.56l-1.413-1.413a7.333 7.333 0 0 0-10.374 0 7.333 7.333 0 0 0 0 10.374L16 28.308l11.787-11.787a7.345 7.345 0 0 0 2.15-5.187 7.33 7.33 0 0 0-2.15-5.187z" />
    </symbol>
    <symbol id="instagram-icon" viewBox="0 0 32 32">
      <path
        d="M28.717 10.756a9.264 9.264 0 0 0-.596-3.145 6.547 6.547 0 0 0-3.743-3.737 9.42 9.42 0 0 0-3.108-.596c-1.368-.061-1.801-.078-5.273-.078s-3.917 0-5.274.078a9.418 9.418 0 0 0-3.106.596 6.541 6.541 0 0 0-3.743 3.737 9.288 9.288 0 0 0-.596 3.101c-.061 1.367-.08 1.8-.08 5.265s0 3.909.08 5.265a9.335 9.335 0 0 0 .596 3.104 6.548 6.548 0 0 0 3.744 3.735 9.37 9.37 0 0 0 3.106.639c1.369.061 1.803.08 5.274.08s3.916 0 5.274-.08a9.357 9.357 0 0 0 3.108-.595 6.555 6.555 0 0 0 3.743-3.737 9.35 9.35 0 0 0 .596-3.104c.061-1.365.08-1.798.08-5.265-.003-3.466-.003-3.906-.082-5.264zM15.99 22.531c-3.631 0-6.572-2.936-6.572-6.561s2.941-6.561 6.572-6.561c3.628 0 6.572 2.936 6.572 6.561s-2.944 6.561-6.572 6.561zm6.833-11.835a1.53 1.53 0 1 1 0-3.06 1.53 1.53 0 1 1 0 3.06z" />
      <path d="M15.992 19.976a4.004 4.004 0 1 0 0-8.009 4.004 4.004 0 0 0 0 8.009z" />
    </symbol>
    <symbol id="inverted-commas-icon" viewBox="0 0 32 32">
      <path
        d="M8.201 17.469c1.546-.613 2.785-.452 3.719.481s1.21 2.421.831 4.463c-.292 1.517-.933 2.683-1.925 3.5-.963.787-2.085 1.181-3.369 1.181-1.75 0-2.96-.671-3.631-2.013-.671-1.371-.802-3.208-.394-5.512.233-1.254.613-2.523 1.137-3.806s1.225-2.596 2.1-3.938 2.013-2.508 3.413-3.5 2.946-1.633 4.637-1.925l-.437 4.638c-1.429.292-2.698 1.035-3.806 2.231-1.108 1.167-1.867 2.567-2.275 4.2zm13.169 0c1.546-.613 2.785-.452 3.719.481s1.21 2.421.831 4.463c-.292 1.517-.933 2.683-1.925 3.5-.963.787-2.085 1.181-3.369 1.181-1.75 0-2.96-.671-3.631-2.013-.671-1.371-.802-3.208-.394-5.512.233-1.254.613-2.523 1.137-3.806s1.225-2.596 2.1-3.938 2.013-2.508 3.413-3.5 2.946-1.633 4.637-1.925l-.437 4.638c-1.429.292-2.698 1.035-3.806 2.231-1.108 1.167-1.867 2.567-2.275 4.2z" />
    </symbol>
    <symbol id="search-icon" viewBox="0 0 32 32">
      <path stroke-linecap="round" stroke-linejoin="round" stroke-width="2.667"
        d="M14.667 25.333c5.891 0 10.667-4.776 10.667-10.667S20.558 3.999 14.667 3.999 4 8.775 4 14.666s4.776 10.667 10.667 10.667zM28 28l-5.8-5.8" />
    </symbol>
    <symbol id="youtube-icon" viewBox="0 0 32 32">
      <path
        d="M24.24 6c-1.36-.08-4.16-.16-8.4-.16h-.56c-4.08 0-6.8.08-8.16.24-1.84.16-3.12.64-3.84 1.28-.64.56-1.12 1.6-1.28 2.96-.08.88-.16 2.72-.16 5.52v.4c0 2.64.08 4.48.24 5.36.24 1.28.64 2.24 1.44 2.8.8.64 2.16 1.04 4.08 1.2 1.36.08 4.16.16 8.4.16h.56c4.08 0 6.8-.08 8.16-.24 1.84-.16 3.12-.64 3.84-1.28.64-.56 1.12-1.6 1.28-2.96.08-.88.16-2.72.16-5.52v-.4c0-2.64-.08-4.48-.24-5.36-.24-1.28-.64-2.24-1.44-2.8-.8-.64-2.16-1.04-4.08-1.2zm-3.12 9.84-8.8 5.28V10.56l8.8 5.28z" />
    </symbol>
    <symbol id="pagination-arrow-left-icon" viewBox="0 0 32 32">
      <path
        d="M14.133 16.947c-0.125-0.124-0.224-0.271-0.292-0.434s-0.103-0.337-0.103-0.513 0.035-0.35 0.103-0.513c0.068-0.162 0.167-0.31 0.292-0.434l6.12-6.107c0.125-0.124 0.224-0.271 0.292-0.434s0.103-0.337 0.103-0.513c0-0.176-0.035-0.35-0.103-0.513s-0.167-0.31-0.292-0.434c-0.25-0.248-0.588-0.388-0.94-0.388s-0.69 0.139-0.94 0.388l-6.12 6.12c-0.749 0.75-1.17 1.767-1.17 2.827s0.421 2.077 1.17 2.827l6.12 6.12c0.248 0.246 0.584 0.385 0.933 0.387 0.176 0.001 0.349-0.033 0.512-0.099s0.31-0.164 0.435-0.288c0.125-0.124 0.224-0.271 0.292-0.434s0.103-0.337 0.103-0.513-0.035-0.35-0.103-0.513c-0.068-0.162-0.167-0.31-0.292-0.434l-6.12-6.107z">
      </path>
    </symbol>
    <symbol id="pagination-arrow-right-icon" viewBox="0 0 32 32">
      <path
        d="M17.867 16.947c0.125-0.124 0.224-0.271 0.292-0.434s0.103-0.337 0.103-0.513-0.035-0.35-0.103-0.513c-0.068-0.162-0.167-0.31-0.292-0.434l-6.12-6.107c-0.125-0.124-0.224-0.271-0.292-0.434s-0.103-0.337-0.103-0.513c0-0.176 0.035-0.35 0.103-0.513s0.167-0.31 0.292-0.434c0.25-0.248 0.588-0.388 0.94-0.388s0.69 0.139 0.94 0.388l6.12 6.12c0.749 0.75 1.17 1.767 1.17 2.827s-0.421 2.077-1.17 2.827l-6.12 6.12c-0.248 0.246-0.584 0.385-0.933 0.387-0.175 0.001-0.349-0.033-0.512-0.099s-0.31-0.164-0.435-0.288c-0.125-0.124-0.224-0.271-0.292-0.434s-0.103-0.337-0.103-0.513 0.035-0.35 0.103-0.513c0.068-0.162 0.167-0.31 0.292-0.434l6.12-6.107z">
      </path>
    </symbol>
    <symbol id="pagination-arrow-double-left-icon" viewBox="0 0 41 32">
      <path
        d="M13.111 16.789c-0.104-0.103-0.187-0.226-0.243-0.362s-0.085-0.281-0.085-0.427 0.029-0.292 0.085-0.427c0.056-0.135 0.139-0.258 0.243-0.361l5.1-5.089c0.104-0.103 0.187-0.226 0.243-0.362s0.085-0.281 0.085-0.427c0-0.147-0.029-0.292-0.085-0.427s-0.139-0.258-0.243-0.362c-0.208-0.207-0.49-0.323-0.783-0.323s-0.575 0.116-0.783 0.323l-5.1 5.1c-0.624 0.625-0.975 1.472-0.975 2.355s0.351 1.731 0.975 2.356l5.1 5.1c0.207 0.205 0.486 0.321 0.778 0.322 0.146 0.001 0.291-0.027 0.427-0.083s0.259-0.137 0.362-0.24c0.104-0.103 0.187-0.226 0.243-0.362s0.085-0.281 0.085-0.427-0.029-0.292-0.085-0.427c-0.056-0.135-0.139-0.258-0.243-0.361l-5.1-5.089z">
      </path>
      <path
        d="M22.445 16.789c-0.104-0.103-0.187-0.226-0.243-0.362s-0.085-0.281-0.085-0.427 0.029-0.292 0.085-0.427c0.056-0.135 0.139-0.258 0.243-0.361l5.1-5.089c0.104-0.103 0.187-0.226 0.243-0.362s0.085-0.281 0.085-0.427c0-0.147-0.029-0.292-0.085-0.427s-0.139-0.258-0.243-0.362c-0.208-0.207-0.49-0.323-0.783-0.323s-0.575 0.116-0.783 0.323l-5.1 5.1c-0.624 0.625-0.975 1.472-0.975 2.355s0.351 1.731 0.975 2.356l5.1 5.1c0.207 0.205 0.486 0.321 0.778 0.322 0.146 0.001 0.291-0.027 0.427-0.083s0.259-0.137 0.362-0.24c0.104-0.103 0.187-0.226 0.243-0.362s0.085-0.281 0.085-0.427-0.029-0.292-0.085-0.427c-0.056-0.135-0.139-0.258-0.243-0.361l-5.1-5.089z">
      </path>
    </symbol>
    <symbol id="pagination-arrow-double-right-icon" viewBox="0 0 41 32">
      <path
        d="M28.223 16.789c0.104-0.103 0.187-0.226 0.243-0.362s0.085-0.281 0.085-0.427-0.029-0.292-0.085-0.427c-0.056-0.135-0.139-0.258-0.243-0.361l-5.1-5.089c-0.104-0.103-0.187-0.226-0.243-0.362s-0.085-0.281-0.085-0.427c0-0.147 0.029-0.292 0.085-0.427s0.139-0.258 0.243-0.362c0.208-0.207 0.49-0.323 0.783-0.323s0.575 0.116 0.783 0.323l5.1 5.1c0.624 0.625 0.975 1.472 0.975 2.355s-0.351 1.731-0.975 2.356l-5.1 5.1c-0.207 0.205-0.486 0.321-0.778 0.322-0.146 0.001-0.291-0.027-0.427-0.083s-0.259-0.137-0.362-0.24c-0.104-0.103-0.187-0.226-0.243-0.362s-0.085-0.281-0.085-0.427 0.029-0.292 0.085-0.427c0.056-0.135 0.139-0.258 0.243-0.361l5.1-5.089z">
      </path>
      <path
        d="M18.889 16.789c0.104-0.103 0.187-0.226 0.243-0.362s0.085-0.281 0.085-0.427-0.029-0.292-0.085-0.427c-0.056-0.135-0.139-0.258-0.243-0.361l-5.1-5.089c-0.104-0.103-0.187-0.226-0.243-0.362s-0.085-0.281-0.085-0.427c0-0.147 0.029-0.292 0.085-0.427s0.139-0.258 0.243-0.362c0.208-0.207 0.49-0.323 0.783-0.323s0.575 0.116 0.783 0.323l5.1 5.1c0.624 0.625 0.975 1.472 0.975 2.355s-0.351 1.731-0.975 2.356l-5.1 5.1c-0.207 0.205-0.486 0.321-0.778 0.322-0.146 0.001-0.291-0.027-0.427-0.083s-0.259-0.137-0.362-0.24c-0.104-0.103-0.187-0.226-0.243-0.362s-0.085-0.281-0.085-0.427 0.029-0.292 0.085-0.427c0.056-0.135 0.139-0.258 0.243-0.361l5.1-5.089z">
      </path>
    </symbol>
    <symbol id="logo-icon" viewBox="0 0 176 32">
      <path d="M6.64 17.707 0 6.667h3.973l4.453 7.653h.053l4.453-7.653h3.973l-6.64 11.04v7.627H6.638v-7.627zM16.894 22.267V9.734l3.067-3.067h9.6l3.067 3.067v12.533l-3.067 3.067h-9.6l-3.067-3.067zm10.746-.027L29 20.88v-9.76l-1.36-1.36h-5.76l-1.36 1.36v9.76l1.36 1.36h5.76zM35.166 22.133V6.666h3.627v14.213l1.36 1.36h5.227l1.36-1.36V6.666h3.627v15.467l-3.2 3.2h-8.8l-3.2-3.2zM67.837 19.147v6.187H64.21v-5.36l-1.6-1.787h-5.813v7.147H53.17V6.667h11.707l2.853 2.88V15.2l-1.813 1.84 1.92 2.107zM56.797 15.2h6.427l.933-.933V10.64l-.933-.933h-6.427V15.2zM77.098 6.667h13.493v3.067h-9.867v4.72h9.093v3.013h-9.093v4.8h9.867v3.067H77.098V6.667zM92.603 6.667h3.253l8.32 12.667h.053V6.667h3.493v18.667h-3.253l-8.32-12.64h-.053v12.64h-3.493V6.667zM110.53 6.667h13.493v3.067h-9.867v4.72h9.093v3.013h-9.093v4.8h9.867v3.067H110.53V6.667zM140.703 19.147v6.187h-3.627v-5.36l-1.6-1.787h-5.814v7.147h-3.627V6.667h11.707l2.853 2.88V15.2l-1.813 1.84 1.92 2.107zM129.662 15.2h6.427l.933-.933V10.64l-.933-.933h-6.427V15.2zM143.097 22.267V9.734l3.067-3.067h9.28l3.013 3.013v2.853h-3.627v-1.52l-1.253-1.253h-5.493l-1.36 1.36v9.76l1.36 1.36h5.547l1.307-1.307v-2.907h-4v-3.093h7.52v7.333l-3.067 3.067h-9.227l-3.067-3.067zM165.104 17.707l-6.64-11.04h3.973l4.453 7.653h.053l4.453-7.653h3.973l-6.64 11.04v7.627h-3.627v-7.627z"/>
    </symbol>
  </defs>
</svg>